<svg id="bootstrap-4" xmlns="http://www.w3.org/2000/svg" width="66.092" height="66.092" viewBox="0 0 66.092 66.092">
  <path id="Path_4430" data-name="Path 4430" d="M0,57.57a8.522,8.522,0,0,0,8.522,8.522H57.57a8.522,8.522,0,0,0,8.522-8.522V8.522A8.522,8.522,0,0,0,57.57,0H8.522A8.522,8.522,0,0,0,0,8.522V57.57Z" fill="#563d7c"/>
  <path id="Path_4431" data-name="Path 4431" d="M80.874,66.7v-9.36h8.239a12.815,12.815,0,0,1,2.27.2,5.665,5.665,0,0,1,1.934.7,3.736,3.736,0,0,1,1.345,1.4,4.653,4.653,0,0,1,.5,2.3,4.234,4.234,0,0,1-1.513,3.643A6.325,6.325,0,0,1,89.785,66.7H80.874Zm-8.8-16.2V90.517H91.467a20.458,20.458,0,0,0,5.24-.673,14.016,14.016,0,0,0,4.54-2.074,10.215,10.215,0,0,0,3.166-3.615,12.233,12.233,0,0,0-.644-11.658,9.619,9.619,0,0,0-5.521-3.727,9.974,9.974,0,0,0,4.064-3.307,8.766,8.766,0,0,0,1.373-5.044,10.734,10.734,0,0,0-.925-4.708,7.691,7.691,0,0,0-2.606-3.054A11.248,11.248,0,0,0,96.119,51a24.913,24.913,0,0,0-5.212-.5Zm8.8,33.179V72.694h9.584a7.414,7.414,0,0,1,4.6,1.317q1.737,1.317,1.738,4.4a5.5,5.5,0,0,1-.533,2.578,4.229,4.229,0,0,1-1.429,1.6,6.052,6.052,0,0,1-2.074.841,11.766,11.766,0,0,1-2.466.252Z" transform="translate(-53.467 -37.462)" fill="#fff"/>
</svg>
