<svg xmlns="http://www.w3.org/2000/svg" width="64" height="64" viewBox="0 0 64 64">
  <g id="Comments" transform="translate(-1390 -926)">
    <circle id="Ellipse_143" data-name="Ellipse 143" cx="32" cy="32" r="32" transform="translate(1390 926)" fill="#55059b" opacity="0.18"/>
    <g id="message" transform="translate(1406 913.89)">
      <g id="Group_2190" data-name="Group 2190" transform="translate(0 30.11)">
        <path id="Path_4361" data-name="Path 4361" d="M214.4,191.141H199.524a.469.469,0,1,0,0,.938H214.4a.469.469,0,1,0,0-.938Z" transform="translate(-186.614 -181.076)" fill="#55059b"/>
        <path id="Path_4362" data-name="Path 4362" d="M214.4,248.474H199.524a.469.469,0,0,0,0,.938H214.4a.469.469,0,0,0,0-.938Z" transform="translate(-186.614 -234.826)" fill="#55059b"/>
        <path id="Path_4363" data-name="Path 4363" d="M214.4,305.807H199.524a.469.469,0,1,0,0,.938H214.4a.469.469,0,1,0,0-.938Z" transform="translate(-186.614 -288.575)" fill="#55059b"/>
        <path id="Path_4364" data-name="Path 4364" d="M159.69,125.549H141.836a2.73,2.73,0,0,0-2.726,2.726V139.5a2.73,2.73,0,0,0,2.726,2.726H154.35a.432.432,0,0,1,.341.165l4.041,5.116a.805.805,0,0,0,.635.312.83.83,0,0,0,.273-.047.806.806,0,0,0,.548-.771v-4.822a2.739,2.739,0,0,0,2.228-2.68V128.275a2.729,2.729,0,0,0-2.726-2.726Zm1.789,13.953a1.8,1.8,0,0,1-1.766,1.788.469.469,0,0,0-.463.469v4.894l-3.824-4.841a1.364,1.364,0,0,0-1.077-.522H141.836a1.791,1.791,0,0,1-1.789-1.789V128.275a1.791,1.791,0,0,1,1.789-1.789H159.69a1.791,1.791,0,0,1,1.789,1.789Z" transform="translate(-130.415 -119.584)" fill="#55059b"/>
        <path id="Path_4365" data-name="Path 4365" d="M6.906,43.826a1.25,1.25,0,0,0-.809.465l-3.22,4.077V44.282a.469.469,0,0,0-.463-.469,1.5,1.5,0,0,1-1.477-1.5V32.544a1.5,1.5,0,0,1,1.5-1.5H17.976a1.5,1.5,0,0,1,1.5,1.5v1.808a.469.469,0,1,0,.938,0V32.544a2.437,2.437,0,0,0-2.434-2.434H2.434A2.437,2.437,0,0,0,0,32.544v9.773A2.445,2.445,0,0,0,1.94,44.7v4.148a.762.762,0,0,0,.518.728.785.785,0,0,0,.258.044.761.761,0,0,0,.6-.294l3.518-4.454a.316.316,0,0,1,.2-.118.469.469,0,0,0-.132-.928Z" transform="translate(0 -30.11)" fill="#55059b"/>
      </g>
    </g>
  </g>
</svg>
