<svg xmlns="http://www.w3.org/2000/svg" width="88" height="88" viewBox="0 0 88 88">
  <g id="Contract" transform="translate(-799 -3340)">
    <circle id="Ellipse_150" data-name="Ellipse 150" cx="44" cy="44" r="44" transform="translate(799 3340)" fill="#e5c8ff"/>
    <g id="curriculum-vitae" transform="translate(818 3360.006)">
      <g id="Group_2218" data-name="Group 2218" transform="translate(8 1)">
        <path id="Path_4405" data-name="Path 4405" d="M42.06,44.285V8.805a.707.707,0,0,0-.208-.5L36.176,2.628a.708.708,0,0,0-.5-.209H20.045a3.511,3.511,0,0,0-5.64,0H8.71a.71.71,0,0,0-.71.71V44.285a.709.709,0,0,0,.71.71H41.351A.709.709,0,0,0,42.06,44.285ZM36.383,4.842,39.638,8.1H36.383Zm4.258,38.734H9.419V3.838h4.329a3.545,3.545,0,0,0-.072.71v9.934a2.129,2.129,0,0,0,4.258,0V5.258H16.515v9.225a.71.71,0,0,1-1.419,0V4.548a2.129,2.129,0,0,1,4.258,0v9.934a3.548,3.548,0,0,1-7.1,0V5.258H10.838v9.225a4.967,4.967,0,0,0,9.934,0V4.548a3.545,3.545,0,0,0-.072-.71H34.964V8.805a.71.71,0,0,0,.71.71h4.967Z" transform="translate(-8 -1)" fill="#55059b"/>
        <path id="Path_4406" data-name="Path 4406" d="M12,53h9.934v1.419H12Z" transform="translate(-9.162 -16.101)" fill="#55059b"/>
        <path id="Path_4407" data-name="Path 4407" d="M12,57h9.934v1.419H12Z" transform="translate(-9.162 -17.263)" fill="#55059b"/>
        <path id="Path_4408" data-name="Path 4408" d="M32.71,50.353h9.934a.709.709,0,0,0,.71-.71V48.225A3.54,3.54,0,0,0,40.1,44.707a2.814,2.814,0,0,0,.411-1.45V41.838a2.838,2.838,0,1,0-5.677,0v1.419a2.814,2.814,0,0,0,.411,1.45A3.54,3.54,0,0,0,32,48.225v1.419A.709.709,0,0,0,32.71,50.353Zm3.548-8.515a1.419,1.419,0,1,1,2.838,0v1.419a1.419,1.419,0,0,1-2.838,0Zm-2.838,6.386A2.131,2.131,0,0,1,35.548,46.1h4.258a2.131,2.131,0,0,1,2.129,2.129v.71H33.419Z" transform="translate(-14.97 -12.036)" fill="#55059b"/>
        <path id="Path_4409" data-name="Path 4409" d="M44.32,35H28.71a.709.709,0,0,0-.71.71V51.321a.709.709,0,0,0,.71.71H44.32a.709.709,0,0,0,.71-.71V35.71A.709.709,0,0,0,44.32,35Zm-.71,15.611H29.419V36.419H43.611Z" transform="translate(-13.808 -10.874)" fill="#55059b"/>
        <path id="Path_4410" data-name="Path 4410" d="M32,31H46.192v1.419H32Z" transform="translate(-14.97 -9.712)" fill="#55059b"/>
        <path id="Path_4411" data-name="Path 4411" d="M32,27H46.192v1.419H32Z" transform="translate(-14.97 -8.551)" fill="#55059b"/>
        <path id="Path_4412" data-name="Path 4412" d="M32,23H46.192v1.419H32Z" transform="translate(-14.97 -7.389)" fill="#55059b"/>
      </g>
    </g>
  </g>
</svg>
