<svg xmlns="http://www.w3.org/2000/svg" width="66" height="66" viewBox="0 0 66 66">
  <g id="Courses_icon" data-name="Courses icon" transform="translate(-219 -140)">
    <circle id="Ellipse_148" data-name="Ellipse 148" cx="33" cy="33" r="33" transform="translate(219 140)" fill="#f80"/>
    <path id="Path_4037" data-name="Path 4037" d="M35.69,7.909H29.934a1.146,1.146,0,0,0-1.151,1.141v1.293H22.45A1.146,1.146,0,0,0,21.3,11.483V24.335H1.151c-.02,0-.072-.055-.072-.076V21.825H20.148V20.684H1.079V1.141c0-.021.052,0,.072,0H32.236c.02,0,0-.021,0,0V6.616h1.079V1.141A1.087,1.087,0,0,0,32.236,0H1.151A1.146,1.146,0,0,0,0,1.141V24.259a1.214,1.214,0,0,0,1.151,1.217H13.24V29.2h-2.3v1.141H22.45V29.2H20.076V25.475H21.3v1.217a1.214,1.214,0,0,0,1.151,1.217h9.786a1.156,1.156,0,0,0,1.079-1.217V22.434H35.69a1.156,1.156,0,0,0,1.079-1.217V9.049A1.087,1.087,0,0,0,35.69,7.909ZM19,29.2H14.319V25.475H19ZM29.934,9.049H35.69c.02,0,0-.021,0,0v1.293H29.862V9.049C29.862,9.028,29.914,9.049,29.934,9.049Zm-.072,2.433H35.69v7.376H29.862Zm2.374,15.285H22.45a.132.132,0,0,1-.072-.076V25.475h9.858v1.217C32.236,26.713,32.256,26.768,32.236,26.768Zm0-2.433H22.378V11.483c0-.021.052,0,.072,0h6.332v9.734a1.214,1.214,0,0,0,1.151,1.217h2.3Zm3.454-3.042H29.934a.132.132,0,0,1-.072-.076V20H35.69v1.217C35.69,21.238,35.71,21.293,35.69,21.293Zm0,0" transform="translate(234.06 158.158)" fill="#fff"/>
  </g>
</svg>
