<svg xmlns="http://www.w3.org/2000/svg" width="66" height="66" viewBox="0 0 66 66">
  <g id="Courses_coding_icon" data-name="Courses coding icon" transform="translate(-849 -1830)">
    <circle id="Ellipse_148" data-name="Ellipse 148" cx="33" cy="33" r="33" transform="translate(849 1830)" fill="#f80"/>
    <g id="coding" transform="translate(864.348 1845)">
      <path id="Path_4386" data-name="Path 4386" d="M155.286,183.368h.853a.522.522,0,0,0,0-1.045h-.853a.522.522,0,0,0,0,1.045Z" transform="translate(-143.985 -169.626)" fill="#fff"/>
      <path id="Path_4387" data-name="Path 4387" d="M194.909,182.845a.522.522,0,0,0,.522.522h10.26a.522.522,0,1,0,0-1.045h-10.26A.522.522,0,0,0,194.909,182.845Z" transform="translate(-181.335 -169.626)" fill="#fff"/>
      <path id="Path_4388" data-name="Path 4388" d="M155.286,215.782h.853a.522.522,0,1,0,0-1.045h-.853a.522.522,0,1,0,0,1.045Z" transform="translate(-143.985 -199.783)" fill="#fff"/>
      <path id="Path_4389" data-name="Path 4389" d="M205.691,214.737h-10.26a.522.522,0,0,0,0,1.045h10.26a.522.522,0,1,0,0-1.045Z" transform="translate(-181.335 -199.783)" fill="#fff"/>
      <path id="Path_4390" data-name="Path 4390" d="M155.286,248.195h.853a.522.522,0,0,0,0-1.045h-.853a.522.522,0,0,0,0,1.045Z" transform="translate(-143.985 -229.939)" fill="#fff"/>
      <path id="Path_4391" data-name="Path 4391" d="M205.691,247.15h-10.26a.522.522,0,0,0,0,1.045h10.26a.522.522,0,1,0,0-1.045Z" transform="translate(-181.335 -229.939)" fill="#fff"/>
      <path id="Path_4392" data-name="Path 4392" d="M155.286,280.609h.853a.522.522,0,1,0,0-1.045h-.853a.522.522,0,1,0,0,1.045Z" transform="translate(-143.985 -260.095)" fill="#fff"/>
      <path id="Path_4393" data-name="Path 4393" d="M205.691,279.564h-10.26a.522.522,0,1,0,0,1.045h10.26a.522.522,0,1,0,0-1.045Z" transform="translate(-181.335 -260.095)" fill="#fff"/>
      <path id="Path_4394" data-name="Path 4394" d="M155.286,313.023h.853a.522.522,0,1,0,0-1.045h-.853a.522.522,0,1,0,0,1.045Z" transform="translate(-143.985 -290.252)" fill="#fff"/>
      <path id="Path_4395" data-name="Path 4395" d="M205.691,311.978h-10.26a.522.522,0,0,0,0,1.045h10.26a.522.522,0,1,0,0-1.045Z" transform="translate(-181.335 -290.252)" fill="#fff"/>
      <path id="Path_4396" data-name="Path 4396" d="M284.883,96.4a.522.522,0,0,0,.734.079l2.19-1.764a.522.522,0,0,0,0-.814l-2.19-1.764a.522.522,0,0,0-.655.814l1.685,1.357-1.685,1.357A.522.522,0,0,0,284.883,96.4Z" transform="translate(-264.935 -85.617)" fill="#fff"/>
      <path id="Path_4397" data-name="Path 4397" d="M194.685,94.72l2.19,1.764a.522.522,0,0,0,.655-.814l-1.685-1.357,1.685-1.357a.522.522,0,0,0-.655-.814l-2.19,1.764a.522.522,0,0,0,0,.814Z" transform="translate(-180.945 -85.618)" fill="#fff"/>
      <path id="Path_4398" data-name="Path 4398" d="M247.491,96.573a.522.522,0,0,0,.658-.336l1.145-3.528a.522.522,0,1,0-.994-.322l-1.145,3.528A.522.522,0,0,0,247.491,96.573Z" transform="translate(-229.919 -85.617)" fill="#fff"/>
      <path id="Path_4399" data-name="Path 4399" d="M2.4,35.656H16.61a.522.522,0,1,0,0-1.045H2.4a1.369,1.369,0,0,1-1.358-1.377V31.94H12.258v.422a1.364,1.364,0,0,0,1.358,1.366h8.425A1.364,1.364,0,0,0,23.4,32.362V31.94H34.612v1.295a1.369,1.369,0,0,1-1.358,1.377H19.047a.522.522,0,1,0,0,1.045H33.253a2.415,2.415,0,0,0,2.4-2.421V31.827a.931.931,0,0,0-.928-.931H32.943a2.942,2.942,0,0,0,.683-1.874V10.814a2.953,2.953,0,0,0-2.95-2.95h-2.82V1.436A1.438,1.438,0,0,0,26.42,0H12.378a.527.527,0,0,0-.369.153L7.954,4.207a.527.527,0,0,0-.153.369V7.864H4.981a2.953,2.953,0,0,0-2.95,2.95V29.021A2.941,2.941,0,0,0,2.714,30.9H.928A.931.931,0,0,0,0,31.827v1.408a2.415,2.415,0,0,0,2.4,2.421Zm19.951-3.294a.322.322,0,0,1-.313.322H13.616a.322.322,0,0,1-.313-.322V31.94h9.052ZM11.856,1.783V3.663a.392.392,0,0,1-.392.392H9.584ZM8.846,5.1h2.618A1.438,1.438,0,0,0,12.9,3.663V1.045H26.42a.392.392,0,0,1,.392.392V25.5a.376.376,0,0,1-.376.376H9.222a.376.376,0,0,1-.376-.376V5.1Zm-5.77,5.715a1.907,1.907,0,0,1,1.9-1.9H7.8v1.12H5.17a.959.959,0,0,0-.958.958V28.821a.959.959,0,0,0,.958.958H30.488a.959.959,0,0,0,.958-.958V21.35a.522.522,0,0,0-1.045,0v7.384H5.256V11.073H7.8V25.5a1.422,1.422,0,0,0,1.421,1.42H26.435a1.422,1.422,0,0,0,1.42-1.42V11.073H30.4v7.84a.522.522,0,0,0,1.045,0V10.986a.959.959,0,0,0-.958-.958H27.856V8.909h2.82a1.907,1.907,0,0,1,1.9,1.9V29.021A1.922,1.922,0,0,1,31.015,30.9H4.642a1.922,1.922,0,0,1-1.566-1.874Z" fill="#fff"/>
    </g>
  </g>
</svg>
