<svg xmlns="http://www.w3.org/2000/svg" width="14.857" height="29.41" viewBox="0 0 14.857 29.41">
  <path id="facebook_1_" data-name="facebook (1)" d="M127.156,15.664h3.224V28.936a.474.474,0,0,0,.474.474h5.466a.474.474,0,0,0,.474-.474V15.727H140.5a.474.474,0,0,0,.471-.42l.563-4.886a.474.474,0,0,0-.471-.529H136.8V6.829c0-.923.5-1.391,1.478-1.391h2.791a.474.474,0,0,0,.474-.474V.478A.474.474,0,0,0,141.064,0h-3.847c-.027,0-.087,0-.176,0a7.371,7.371,0,0,0-4.82,1.817,5.055,5.055,0,0,0-1.681,4.493V9.892h-3.384a.474.474,0,0,0-.474.474V15.19A.474.474,0,0,0,127.156,15.664Z" transform="translate(-126.682)" fill="#fff"/>
</svg>
