<svg id="html-5" xmlns="http://www.w3.org/2000/svg" width="46.824" height="66.092" viewBox="0 0 46.824 66.092">
  <path id="Path_4432" data-name="Path 4432" d="M47.269,70.766,43,118.554l-19.175,5.316L4.706,118.561.445,70.766H47.269Z" transform="translate(-0.445 -57.777)" fill="#e44d26"/>
  <path id="Path_4433" data-name="Path 4433" d="M128,137.189l15.494-4.3,3.645-40.837H128Z" transform="translate(-104.588 -75.16)" fill="#f16529"/>
  <path id="Path_4434" data-name="Path 4434" d="M54.323,129.857h8.293V124h-14.7l.14,1.573L49.5,141.721H62.616v-5.862H54.859Zm1.321,14.8H49.76l.821,9.2,12.008,3.333.027-.007v-6.1l-.026.007-6.528-1.763Z" transform="translate(-39.204 -101.236)" fill="#ebebeb"/>
  <path id="Path_4435" data-name="Path 4435" d="M24.18,0h2.979V2.943h2.725V0h2.979V8.913H29.884V5.928H27.159V8.913H24.18V0Zm12.6,2.956H34.158V0h8.225V2.956H39.76V8.913H36.781V2.956h0ZM43.689,0H46.8l1.911,3.132L50.615,0h3.107V8.913H50.755V4.495L48.706,7.664h-.051L46.6,4.495V8.913H43.689ZM55.2,0h2.98V5.967h4.189V8.913H55.2V0Z" transform="translate(-19.824)"/>
  <path id="Path_4436" data-name="Path 4436" d="M127.889,141.721h7.218l-.681,7.6-6.538,1.765v6.1l12.017-3.33.088-.99,1.378-15.432.143-1.574H127.889Zm0-11.879v.014h14.159l.117-1.317.267-2.972.14-1.573H127.889v5.848Z" transform="translate(-104.497 -101.236)" fill="#fff"/>
</svg>
