<svg xmlns="http://www.w3.org/2000/svg" width="61.488" height="61.488" viewBox="0 0 61.488 61.488">
  <g id="laravel" transform="translate(0)">
    <path id="Path_4439" data-name="Path 4439" d="M139.149,113.251c.48.694.774.641,1.147.48s19.589-6.645,20.176-6.859.4-.4.214-.694-6.592-8.994-6.912-9.5-.48-.4-.987-.24l-20.369,5.3S138.669,112.557,139.149,113.251Zm22.951-8.859V94.208L155.766,95.9C157.492,98.2,160.191,101.819,162.1,104.392Zm-6.354-21.039c-.314.071-7.265,1.328-7.693,1.384s-.285.3-.114.542l6.117,8.393s7.479-1.855,7.936-1.955l.109-.026V90.58c-1.359-1.724-5.063-6.417-5.383-6.856C156.331,83.2,156.06,83.282,155.746,83.353Z" transform="translate(-100.612 -63.292)" fill="#f35045"/>
    <path id="Path_4440" data-name="Path 4440" d="M13.351,6.878c1.505-.068,1.643.274,2.3,1.255L32.269,35.908l20.89-5c-1.157-1.641-6.412-9.09-6.92-9.8-.571-.8.014-1.17.942-1.327s8.921-1.5,9.606-1.6,1.228-.343,2.341,1c.57.686,2.5,3.091,4.313,5.345V11.529a11.105,11.105,0,0,0-3.383-8.146A11.105,11.105,0,0,0,51.912,0H13.482A11.105,11.105,0,0,0,5.335,3.383,11.322,11.322,0,0,0,2.57,7.718c3.766-.309,9.728-.793,10.781-.841Z" transform="translate(-1.953 0)" fill="#f35045"/>
    <path id="Path_4441" data-name="Path 4441" d="M40.421,109.657c-1.762.534-2.551.8-3.7-.8-.859-1.2-5.507-9.57-7.785-13.7-4.313,1.129-12.2,3.189-14.481,3.736a2.8,2.8,0,0,1-3.535-1.619C10.665,96.7,4.153,82.659,0,73.65v32.269a11.105,11.105,0,0,0,3.383,8.146,11.105,11.105,0,0,0,8.146,3.383h38.43a11.549,11.549,0,0,0,11.529-11.529v-3.79C56.771,103.854,41.608,109.3,40.421,109.657Z" transform="translate(0 -55.96)" fill="#f35045"/>
    <path id="Path_4442" data-name="Path 4442" d="M14.544,67.584c.624-.143,12.325-2.943,12.574-3s.41-.2.143-.66-15.6-26.923-15.6-26.923c-.141-.243-.1-.324-.486-.3-.343.018-9.016.792-11.024.96a12.259,12.259,0,0,0-.111,1.28c2.038,4.173,13.738,28.3,13.8,28.5.071.214.071.286.7.143Z" transform="translate(-0.033 -27.884)" fill="#f35045"/>
  </g>
</svg>
