<svg id="Icon_ionic-ios-arrow-dropright" data-name="Icon ionic-ios-arrow-dropright" xmlns="http://www.w3.org/2000/svg" xmlns:xlink="http://www.w3.org/1999/xlink" width="29.25" height="29.25" viewBox="0 0 29.25 29.25">
  <defs>
    <linearGradient id="linear-gradient" x1="0.5" x2="0.5" y2="1" gradientUnits="objectBoundingBox">
      <stop offset="0" stop-color="#55059b"/>
      <stop offset="1" stop-color="#f80"/>
    </linearGradient>
  </defs>
  <path id="Path_4425" data-name="Path 4425" d="M23.437,10.378a1.362,1.362,0,0,0-1.92,0L14.81,17.107a1.356,1.356,0,0,0-.042,1.87l6.609,6.63A1.355,1.355,0,1,0,23.3,23.7l-5.618-5.7,5.759-5.7A1.341,1.341,0,0,0,23.437,10.378Z" transform="translate(-5.627 -3.375)" fill="url(#linear-gradient)"/>
  <path id="Path_4426" data-name="Path 4426" d="M32.625,18A14.625,14.625,0,1,1,18,3.375,14.623,14.623,0,0,1,32.625,18Zm-2.25,0A12.37,12.37,0,0,0,9.253,9.253,12.37,12.37,0,1,0,26.747,26.747,12.269,12.269,0,0,0,30.375,18Z" transform="translate(-3.375 -3.375)" fill="url(#linear-gradient)"/>
</svg>
