<svg xmlns="http://www.w3.org/2000/svg" width="1118.365" height="559.841" viewBox="0 0 1118.365 559.841">
  <g id="IT_Live_white_bg" data-name="IT Live white bg" transform="translate(-16172.594 -4053.159)">
    <path id="Path_121" data-name="Path 121" d="M16180.058,4621.893H16956.1l-89.277,236.932h-776.039Z" transform="translate(239 -354)" fill="#ea1b21"/>
    <text id="IT_LIVE" data-name="IT LIVE" transform="translate(16426 4461)" fill="#fff" font-size="214" font-family="Poppins-Bold, Poppins" font-weight="700"><tspan x="0" y="0">IT LIVE</tspan></text>
    <path id="Path_122" data-name="Path 122" d="M16210.962,4879.427l-10.3,30.9h48.072v25.753h-85.845l20.6-56.658Z" transform="translate(200 -352)" fill="#ea1b21"/>
    <text id="EDUCATION" transform="translate(16481 4590)" fill="#717171" font-size="65" font-family="Poppins-Medium, Poppins" font-weight="500" letter-spacing="0.481em"><tspan x="0" y="0">EDUCATION</tspan></text>
    <path id="Path_123" data-name="Path 123" d="M16900.873,4910.327h46.225l83.2-215.272h-73.959l10.172-25.093h99.445l-97.73,265.458h-67.355Z" transform="translate(225 -356)" fill="#ea1b21"/>
    <g id="Group_215" data-name="Group 215" transform="translate(969.475 1549.998) rotate(-9)">
      <path id="Subtraction_11" data-name="Subtraction 11" d="M26.033,113H.006c0-.44-.007-.836-.007-1.211A112.561,112.561,0,0,1,2.272,89.26,111.126,111.126,0,0,1,19.1,49.287a112.139,112.139,0,0,1,49.2-40.5A111.284,111.284,0,0,1,89.294,2.272,113.011,113.011,0,0,1,130,1.469V27.842A86.328,86.328,0,0,0,26.03,112.271c0,.237,0,.482,0,.729Z" transform="translate(14748 5020.807)" fill="#ea1b21"/>
      <path id="Subtraction_12" data-name="Subtraction 12" d="M31.394,176H0c0-.109,0-.217,0-.326V175.6a177.383,177.383,0,0,1,3.557-35.389A174.846,174.846,0,0,1,175.082,0,177.278,177.278,0,0,1,194,1.015V32.73a144.454,144.454,0,0,0-18.917-1.244c-79.23,0-143.689,64.647-143.689,144.11,0,.135,0,.267,0,.4Z" transform="translate(14683 4956.807)" fill="#ea1b21"/>
      <path id="Subtraction_13" data-name="Subtraction 13" d="M36.171,243H0v-.39q0-.209,0-.418a243.9,243.9,0,0,1,4.921-48.81,240.845,240.845,0,0,1,36.449-86.6A242.929,242.929,0,0,1,147.947,19.033a241.042,241.042,0,0,1,45.47-14.112A244.059,244.059,0,0,1,242.236,0c5.893,0,11.87.217,17.764.644V36.263c-5.764-.485-11.635-.731-17.449-.731-113.8,0-206.383,92.566-206.383,206.346,0,.363,0,.74,0,1.122Z" transform="translate(14618 4890.807)" fill="#ea1b21"/>
    </g>
  </g>
</svg>
