<svg xmlns="http://www.w3.org/2000/svg" width="87.574" height="45.587" viewBox="0 0 87.574 45.587">
  <g id="php-1" transform="translate(0)">
    <ellipse id="Ellipse_152" data-name="Ellipse 152" cx="43.787" cy="22.793" rx="43.787" ry="22.793" transform="translate(0 0)" fill="#8993be"/>
    <path id="Path_4443" data-name="Path 4443" d="M35.945,47.249l4.8-24.293h11.1c4.8.3,7.2,2.7,7.2,6.9,0,7.2-5.7,11.4-10.8,11.1h-5.4l-1.2,6.3Zm8.1-10.8,1.5-9h3.9c2.1,0,3.6.9,3.6,2.7-.3,5.1-2.7,6-5.4,6.3h-3.6Zm13.881,4.5,4.8-24.293h5.7l-1.2,6.3h5.4c4.8.3,6.6,2.7,6,5.7l-2.1,12.3h-6l2.1-11.1c.3-1.5.3-2.4-1.8-2.4h-4.5l-2.7,13.5Zm18.21,6.3,4.8-24.293h11.1c4.8.3,7.2,2.7,7.2,6.9,0,7.2-5.7,11.4-10.8,11.1h-5.4l-1.2,6.3Zm8.1-10.8,1.5-9h3.9c2.1,0,3.6.9,3.6,2.7-.3,5.1-2.7,6-5.4,6.3h-3.6Z" transform="translate(-23.649 -10.96)" fill="#232531" fill-rule="evenodd"/>
  </g>
</svg>
