<svg id="play-button" xmlns="http://www.w3.org/2000/svg" width="118.441" height="118.441" viewBox="0 0 118.441 118.441">
  <ellipse id="Ellipse_34" data-name="Ellipse 34" cx="59.221" cy="59.221" rx="59.221" ry="59.221" transform="translate(0 0)" fill="rgba(85,5,155,0.51)"/>
  <path id="Path_238" data-name="Path 238" d="M95.129,27.305A50.8,50.8,0,0,0,80.259,9.841a2.049,2.049,0,1,0-2.437,3.3A46.681,46.681,0,0,1,91.487,29.184,45.743,45.743,0,0,1,96.6,50.351,46.252,46.252,0,1,1,50.351,4.1a2.049,2.049,0,0,0,0-4.1A50.322,50.322,0,1,0,95.129,27.305Z" transform="translate(8.996 8.665)" fill="#f80"/>
  <path id="Path_239" data-name="Path 239" d="M107.7,78.453a2.05,2.05,0,0,0-1.037,1.781v44.973a2.049,2.049,0,0,0,4.1,0V83.839L141.1,101.9l-22.311,14.375a2.049,2.049,0,1,0,2.22,3.445L146.1,103.555a2.05,2.05,0,0,0-.062-3.484l-36.28-21.6A2.049,2.049,0,0,0,107.7,78.453Z" transform="translate(-61.238 -42.816)" fill="#f80"/>
</svg>
