<svg id="python-4" xmlns="http://www.w3.org/2000/svg" xmlns:xlink="http://www.w3.org/1999/xlink" width="54.479" height="55.118" viewBox="0 0 54.479 55.118">
  <defs>
    <linearGradient id="linear-gradient" x1="13.33" y1="-28.142" x2="13.411" y2="-28.21" gradientUnits="objectBoundingBox">
      <stop offset="0" stop-color="#5ca0d5"/>
      <stop offset="1" stop-color="#316a99"/>
    </linearGradient>
    <linearGradient id="linear-gradient-2" x1="13.039" y1="-28.376" x2="13.01" y2="-28.336" gradientUnits="objectBoundingBox">
      <stop offset="0" stop-color="#ffd43e"/>
      <stop offset="1" stop-color="#ffe975"/>
    </linearGradient>
  </defs>
  <path id="Path_4445" data-name="Path 4445" d="M303.168.011a34.815,34.815,0,0,0-6.3.561c-5.595.978-6.577,3.01-6.577,6.857v5.038h13.153v1.679H285.4a8.225,8.225,0,0,0-8.184,6.645,24.759,24.759,0,0,0,0,13.362c.91,3.92,3.15,6.645,7,6.645h4.549V34.782a8.383,8.383,0,0,1,8.184-8.184h13.081a6.645,6.645,0,0,0,6.577-6.717V7.357c0-3.567-3.01-6.228-6.577-6.857A38.483,38.483,0,0,0,303.168.011ZM296.03,4a2.518,2.518,0,1,1-2.449,2.517A2.449,2.449,0,0,1,296.03,4Z" transform="translate(-276.296 0.002)" fill="url(#linear-gradient)"/>
  <path id="Path_4446" data-name="Path 4446" d="M633.514,329.4v5.807a8.421,8.421,0,0,1-8.256,8.324H612.177a6.737,6.737,0,0,0-6.577,6.717v12.524c0,3.567,3.078,5.667,6.577,6.717a21.587,21.587,0,0,0,13.153,0c3.286-.978,6.577-2.87,6.577-6.717v-5.038H618.749v-1.679h19.73c3.779,0,5.246-2.657,6.577-6.645,1.4-4.128,1.331-8.043,0-13.362-.91-3.779-2.729-6.645-6.577-6.645ZM626.1,361.093a2.518,2.518,0,1,1-2.449,2.517A2.492,2.492,0,0,1,626.1,361.093Z" transform="translate(-591.6 -315.396)" fill="url(#linear-gradient-2)"/>
</svg>
