<svg xmlns="http://www.w3.org/2000/svg" width="88" height="88" viewBox="0 0 88 88">
  <g id="Screen_update" data-name="Screen update" transform="translate(-277 -3340)">
    <circle id="Эллипс_149" data-name="Эллипс 149" cx="44" cy="44" r="44" transform="translate(277 3340)" fill="#e5c8ff"/>
    <g id="Сгруппировать_2217" data-name="Сгруппировать 2217" transform="translate(0 -15)">
      <g id="computer_1_" data-name="computer (1)" transform="translate(297 3358.5)">
        <path id="Контур_4400" data-name="Контур 4400" d="M44.542,18.5H3.52A3.524,3.524,0,0,0,0,22.02V53a3.524,3.524,0,0,0,3.52,3.52H18.545L17.7,59.483a3.254,3.254,0,0,1-2.913,2.2h-5.3a.7.7,0,1,0,0,1.408h29.1a.7.7,0,0,0,0-1.408h-5.3a3.254,3.254,0,0,1-2.913-2.2l-.847-2.966H44.542A3.524,3.524,0,0,0,48.062,53V22.02A3.524,3.524,0,0,0,44.542,18.5ZM3.52,19.908H44.542a2.114,2.114,0,0,1,2.112,2.112V46.661H1.408V22.02A2.114,2.114,0,0,1,3.52,19.908ZM29.01,59.87a4.3,4.3,0,0,0,1.081,1.81H17.971a4.3,4.3,0,0,0,1.081-1.81l.958-3.353h8.043ZM44.542,55.11H3.52A2.114,2.114,0,0,1,1.408,53V48.069H46.654V53A2.114,2.114,0,0,1,44.542,55.11Z" fill="#55059b"/>
        <path id="Контур_4401" data-name="Контур 4401" d="M30.7,72.437H71.725a.7.7,0,0,0,.7-.7V49.2a.7.7,0,0,0-.7-.7H30.7a.7.7,0,0,0-.7.7V59.06a.7.7,0,0,0,1.408,0V49.908H71.021V71.029H31.408V61.877a.7.7,0,1,0-1.408,0v9.856A.7.7,0,0,0,30.7,72.437Z" transform="translate(-27.184 -27.184)" fill="#55059b"/>
        <path id="Контур_4402" data-name="Контур 4402" d="M235.612,348.5a2.112,2.112,0,1,0,2.112,2.112A2.114,2.114,0,0,0,235.612,348.5Zm0,2.816a.7.7,0,1,1,.7-.7A.7.7,0,0,1,235.612,351.316Z" transform="translate(-211.581 -299.023)" fill="#55059b"/>
      </g>
      <path id="Icon_material-update" data-name="Icon material-update" d="M14.762,8.559H10.9l1.562-1.608a4.012,4.012,0,0,0-5.632-.057,3.919,3.919,0,0,0,0,5.581,4,4,0,0,0,5.632,0,3.713,3.713,0,0,0,1.163-2.788h1.14a5.325,5.325,0,0,1-1.5,3.586,5.161,5.161,0,0,1-7.251,0A5.039,5.039,0,0,1,5.995,6.1a5.123,5.123,0,0,1,7.211,0l1.556-1.6ZM9.917,7.35V9.773l2,1.186-.41.69L9.062,10.2V7.35Z" transform="translate(311.066 3382.033)" fill="#55059b"/>
    </g>
  </g>
</svg>
