<svg id="search_2_" data-name="search (2)" xmlns="http://www.w3.org/2000/svg" width="24.005" height="24.005" viewBox="0 0 24.005 24.005">
  <path id="Path_61" data-name="Path 61" d="M5.32,146.292l-.836,3.119-3.054.065a12.024,12.024,0,0,1-.088-11.208h0l2.719.5,1.191,2.7a7.163,7.163,0,0,0,.067,4.823Z" transform="translate(0 -131.785)" fill="#fff"/>
  <path id="Path_62" data-name="Path 62" d="M273.157,208.176a12,12,0,0,1-4.279,11.6h0l-3.425-.175-.485-3.026a7.153,7.153,0,0,0,3.078-3.653h-6.418v-4.748h11.529Z" transform="translate(-249.362 -198.415)" fill="#fff"/>
  <path id="Path_63" data-name="Path 63" d="M48.595,316.264h0a12.006,12.006,0,0,1-18.086-3.672l3.89-3.184a7.138,7.138,0,0,0,10.287,3.655Z" transform="translate(-29.079 -294.902)" fill="#fff"/>
  <path id="Path_64" data-name="Path 64" d="M46.946,2.763,43.057,5.947A7.137,7.137,0,0,0,32.535,9.684l-3.91-3.2h0a12,12,0,0,1,18.322-3.72Z" transform="translate(-27.282 0)" fill="#fff"/>
</svg>
