<svg xmlns="http://www.w3.org/2000/svg" width="55.1" height="55.118" viewBox="0 0 55.1 55.118">
  <path id="spring-3" d="M50.109,2.87a25.443,25.443,0,0,1-2.942,5.224A27.65,27.65,0,1,0,8.582,47.705l1.019.9A27.607,27.607,0,0,0,54.946,29.428c.753-7.047-1.313-15.959-4.837-26.558Zm-37.6,44.993A2.365,2.365,0,1,1,10.671,44a2.338,2.338,0,0,1,1.485.531,2.376,2.376,0,0,1,.352,3.33Zm37.487-8.281c-6.817,9.092-21.377,6.028-30.713,6.465,0,0-1.658.1-3.322.373,0,0,.624-.266,1.435-.574,6.552-2.282,9.652-2.727,13.634-4.772,7.5-3.818,14.911-12.17,16.454-20.86-2.856,8.36-11.51,15.543-19.4,18.464A131.767,131.767,0,0,1,12.924,42.61l-.395-.208C5.884,39.166,5.683,24.764,17.76,20.114c5.289-2.038,10.348-.919,16.06-2.282,6.1-1.45,13.153-6.028,16.024-12,3.215,9.551,7.083,24.506.151,33.748Z" fill="#77bc1f"/>
</svg>
