<svg xmlns="http://www.w3.org/2000/svg" width="88" height="88" viewBox="0 0 88 88">
  <g id="Wallet" transform="translate(-1273 -3340)">
    <circle id="Эллипс_151" data-name="Эллипс 151" cx="44" cy="44" r="44" transform="translate(1273 3340)" fill="#e5c8ff"/>
    <g id="wallet-2" data-name="wallet" transform="translate(1294 3360.839)">
      <g id="Сгруппировать_2220" data-name="Сгруппировать 2220">
        <g id="Сгруппировать_2219" data-name="Сгруппировать 2219">
          <path id="Контур_4413" data-name="Контур 4413" d="M54.929,384.211a.7.7,0,1,0-.986.986l.916.916H49.5a.7.7,0,1,0,0,1.409h5.354l-.916.916a.681.681,0,0,0,0,.986.681.681,0,0,0,.986,0l2.114-2.114.493-.493-.493-.493Z" transform="translate(-44.502 -350.182)" fill="#55059b"/>
          <path id="Контур_4414" data-name="Контур 4414" d="M8.525,319.2a8.525,8.525,0,1,0,8.525,8.525A8.509,8.509,0,0,0,8.525,319.2Zm0,15.641a7.116,7.116,0,1,1,7.116-7.116A7.1,7.1,0,0,1,8.525,334.841Z" transform="translate(0 -291.089)" fill="#55059b"/>
          <path id="Контур_4415" data-name="Контур 4415" d="M250.209,377.409a.7.7,0,1,0,0-1.409h-.7a.7.7,0,1,0,0,1.409Z" transform="translate(-226.889 -342.887)" fill="#55059b"/>
          <path id="Контур_4416" data-name="Контур 4416" d="M282.209,377.409a.7.7,0,1,0,0-1.409h-.7a.7.7,0,1,0,0,1.409Z" transform="translate(-256.071 -342.887)" fill="#55059b"/>
          <path id="Контур_4417" data-name="Контур 4417" d="M218.209,377.409a.7.7,0,1,0,0-1.409h-.7a.7.7,0,1,0,0,1.409Z" transform="translate(-197.707 -342.887)" fill="#55059b"/>
          <path id="Контур_4418" data-name="Контур 4418" d="M394.209,129.409a.7.7,0,1,0,0-1.409h-.7a.7.7,0,1,0,0,1.409Z" transform="translate(-358.207 -116.727)" fill="#55059b"/>
          <path id="Контур_4419" data-name="Контур 4419" d="M426.209,129.409a.7.7,0,0,0,0-1.409h-.7a.7.7,0,1,0,0,1.409Z" transform="translate(-387.389 -116.727)" fill="#55059b"/>
          <path id="Контур_4420" data-name="Контур 4420" d="M362.209,129.409a.7.7,0,1,0,0-1.409h-.7a.7.7,0,1,0,0,1.409Z" transform="translate(-329.025 -116.727)" fill="#55059b"/>
          <path id="Контур_4421" data-name="Контур 4421" d="M212.982,104.454h-2.114V96.7a.666.666,0,0,0-.7-.7H185.5a.7.7,0,1,0,0,1.409h23.954v7.045h-7.75a.666.666,0,0,0-.7.7v9.864a.666.666,0,0,0,.7.7h7.75v7.75H187.618a.7.7,0,1,0,0,1.409h22.545a.666.666,0,0,0,.7-.7v-8.454h2.114a.666.666,0,0,0,.7-.7v-9.864A.666.666,0,0,0,212.982,104.454Zm-.7,9.864h-9.864v-8.454h9.864Z" transform="translate(-168.525 -87.546)" fill="#55059b"/>
          <path id="Контур_4422" data-name="Контур 4422" d="M137.5,96a.7.7,0,1,0,0,1.409h1.409a.7.7,0,0,0,0-1.409Z" transform="translate(-124.752 -87.546)" fill="#55059b"/>
          <path id="Контур_4423" data-name="Контур 4423" d="M41.5,27.477a.666.666,0,0,0,.7-.7V9.864h4.932a.7.7,0,1,0,0-1.409H42.209V6.9l31.7-5.425V6.341a.7.7,0,0,0,1.409,0V.7a.641.641,0,0,0-.282-.564A.759.759,0,0,0,74.477,0L41.364,5.636a.759.759,0,0,0-.564.7V26.772A.666.666,0,0,0,41.5,27.477Z" transform="translate(-37.207)" fill="#55059b"/>
          <path id="Контур_4424" data-name="Контур 4424" d="M418.914,236.227a2.114,2.114,0,1,0-2.114-2.114A2.076,2.076,0,0,0,418.914,236.227Zm0-2.818a.7.7,0,1,1-.7.7A.666.666,0,0,1,418.914,233.409Z" transform="translate(-380.094 -211.568)" fill="#55059b"/>
        </g>
      </g>
    </g>
  </g>
</svg>
