<svg xmlns="http://www.w3.org/2000/svg" xmlns:xlink="http://www.w3.org/1999/xlink" width="538.608" height="386.346" viewBox="0 0 538.608 386.346">
  <defs>
    <clipPath id="clip-path">
      <path id="Контур_4479" data-name="Контур 4479" d="M36.9,463.446V77.1l538.481.506v385.84Z" transform="translate(-36.9 -77.1)"/>
    </clipPath>
  </defs>
  <g id="Сгруппировать_2268" data-name="Сгруппировать 2268" transform="translate(-1104.392 -3817.331)">
    <g id="Сгруппировать_2244" data-name="Сгруппировать 2244" transform="translate(1104.392 3817.331)">
      <rect id="Прямоугольник_453" data-name="Прямоугольник 453" width="538.608" height="385.84" transform="translate(0 0.506)" fill="#f1f2f2"/>
      <g id="Сгруппировать_2227" data-name="Сгруппировать 2227" transform="translate(0 0)" clip-path="url(#clip-path)">
        <path id="Контур_4471" data-name="Контур 4471" d="M474.2-2.256,164.622,239.036,24.5,174.16s149.353-185.648,266.585-205C408.19-50.186,474.2-2.256,474.2-2.256Z" transform="translate(-40.181 -106.881)" fill="#231f20" opacity="0.1"/>
        <path id="Контур_4472" data-name="Контур 4472" d="M689.273,70l.506,122.543C589.873,209.113,4.6,101.746,4.6,101.746L26.984-18.9" transform="translate(-45.448 -102.505)" fill="#231f20" opacity="0.1"/>
        <path id="Контур_4473" data-name="Контур 4473" d="M473.2-6.856,163.622,234.436,23.5,169.56s149.353-185.648,266.585-205C407.19-54.786,473.2-6.856,473.2-6.856Z" transform="translate(-40.446 -108.099)" fill="#f80"/>
        <path id="Контур_4474" data-name="Контур 4474" d="M455.534-26.931,165.048,237.124,20.5,183S155.436-13.4,270.771-41.6C386.106-69.676,455.534-26.931,455.534-26.931Z" transform="translate(-41.24 -111.04)" fill="#fff" opacity="0.1"/>
        <path id="Контур_4475" data-name="Контур 4475" d="M689.273,66l.506,122.543C589.873,205.113,4.6,97.746,4.6,97.746L26.984-22.9" transform="translate(-45.448 -103.563)" fill="#55059b"/>
        <path id="Контур_4476" data-name="Контур 4476" d="M693.906,115.489l-19.1,121.025C573.639,236.894,12.9,37.588,12.9,37.588L54.253-78" transform="translate(-43.251 -118.145)" fill="#fff" opacity="0.1"/>
        <path id="Контур_4477" data-name="Контур 4477" d="M463.418-51,181.784,203.571,6,165.252,125.508-19.764Z" transform="translate(-45.077 -111)" fill="#55059b"/>
        <path id="Контур_4478" data-name="Контур 4478" d="M501.775-2.946,179.926,198.384,13.5,129.841,163.612-31.4Z" transform="translate(-43.092 -105.813)" fill="#fff" opacity="0.1"/>
      </g>
      <g id="Сгруппировать_2228" data-name="Сгруппировать 2228" transform="translate(0 0)" clip-path="url(#clip-path)">
        <path id="Контур_4480" data-name="Контур 4480" d="M138.8,560.992,448.383,319.7,588.5,384.576s-149.353,185.648-266.585,205C204.94,608.922,138.8,560.992,138.8,560.992Z" transform="translate(-9.934 -12.9)" fill="#231f20" opacity="0.1"/>
        <path id="Контур_4481" data-name="Контур 4481" d="M-13.894,449.207-14.4,326.664c99.78-16.567,685.053,90.8,685.053,90.8L648.268,538.11" transform="translate(-50.476 -11.517)" fill="#231f20" opacity="0.1"/>
        <path id="Контур_4482" data-name="Контур 4482" d="M138.8,565.292,448.383,324,588.5,388.876s-149.353,185.648-266.585,205C204.94,613.222,138.8,565.292,138.8,565.292Z" transform="translate(-9.934 -11.762)" fill="#ffa844"/>
        <path id="Контур_4483" data-name="Контур 4483" d="M153.5,588.156,443.987,324.1l144.674,54.126s-134.936,196.4-250.271,224.6C222.928,631.027,153.5,588.156,153.5,588.156Z" transform="translate(-6.044 -11.736)" fill="#f80"/>
        <path id="Контур_4484" data-name="Контур 4484" d="M-13.894,453.606-14.4,331.064c99.78-16.567,685.053,90.8,685.053,90.8L648.268,542.51" transform="translate(-50.476 -10.352)" fill="#aa4aff"/>
        <path id="Контур_4485" data-name="Контур 4485" d="M-19.4,425.326-.3,304.3c101.171-.379,661.783,198.927,661.783,198.927L620.252,618.814" transform="translate(-51.799 -16.975)" fill="#55059b"/>
        <path id="Контур_4486" data-name="Контур 4486" d="M150.3,605.271,431.808,350.7l175.911,38.318L488.084,574.034Z" transform="translate(-6.89 -4.696)" fill="#55059b"/>
        <path id="Контур_4487" data-name="Контур 4487" d="M118.4,552.03,440.25,350.7l166.3,68.543L456.437,580.484Z" transform="translate(-15.332 -4.696)" fill="#fff" opacity="0.1"/>
      </g>
      <path id="Контур_4489" data-name="Контур 4489" d="M553.836,450.647H54.052a8.8,8.8,0,0,1-8.852-8.852V94.652A8.8,8.8,0,0,1,54.052,85.8h499.91a8.8,8.8,0,0,1,8.852,8.852V441.794A8.987,8.987,0,0,1,553.836,450.647Z" transform="translate(-34.703 -74.798)" fill="none" stroke="#fcb458" stroke-miterlimit="10" stroke-width="1"/>
      <text id="CERTIFICATE" transform="translate(171.049 134.809)" fill="#0079c5" font-size="33" font-family="SourceSansPro-Semibold, Source Sans Pro" font-weight="600"><tspan x="0" y="0">CERTIFICATE</tspan></text>
      <g id="Сгруппировать_2231" data-name="Сгруппировать 2231" transform="translate(202.573 171.192)">
        <text id="is_proudly_presented_to" data-name="is proudly presented to" transform="translate(0 8)" fill="#0079c5" font-size="8" font-family="SourceSansPro-Regular, Source Sans Pro"><tspan x="0" y="0">is proudly presented to</tspan></text>
      </g>
      <g id="Сгруппировать_2233" data-name="Сгруппировать 2233" transform="translate(177.141 190.286)">
        <text id="Name_Surname" data-name="Name Surname" transform="translate(0 34)" fill="#231f20" font-size="36" font-family="SegoeUI, Segoe UI"><tspan x="0" y="0">Name Surname</tspan></text>
      </g>
      <g id="Сгруппировать_2235" data-name="Сгруппировать 2235" transform="translate(151.97 281.11)">
        <text id="_01.10.2020" data-name="01.10.2020" transform="translate(0 12)" fill="#231f20" font-size="13" font-family="SegoeUI, Segoe UI"><tspan x="0" y="0">01.10.2020</tspan></text>
      </g>
      <text id="Mark_Spencer" data-name="Mark Spencer" transform="translate(326.356 293.11)" fill="#231f20" font-size="13" font-family="SegoeUI, Segoe UI"><tspan x="0" y="0">Mark Spencer</tspan></text>
      <rect id="Прямоугольник_454" data-name="Прямоугольник 454" width="437.69" height="37.939" transform="translate(50.206 244.833)" fill="none"/>
      <g id="Сгруппировать" transform="translate(54.003 242.667)">
        <text id="Lorem_ipsum_dolor_sit_amet_consectetur_adipiscing_elit_sed_do_eiusmod_tempor_incididunt_ut_labore_et_dolore_magna_aliqua._Ut_enim_ad_" data-name="Lorem ipsum dolor sit amet, consectetur adipiscing elit, sed do eiusmod tempor incididunt ut labore et dolore magna aliqua. Ut enim ad " transform="translate(0 4)" fill="#0079c5" font-size="4" font-family="SourceSansPro-Regular, Source Sans Pro"><tspan x="0" y="0">Lorem ipsum dolor sit amet, consectetur adipiscing elit, sed do eiusmod tempor incididunt ut labore et dolore magna aliqua. Ut enim ad </tspan></text>
        <text id="minim_veniam_quis_nostrud_exercitation_ullamco_laboris_nisi_ut_aliquip_ex_ea_commodo_consequat." data-name="minim veniam, quis nostrud exercitation ullamco laboris nisi ut aliquip ex ea commodo consequat." transform="translate(59.058 13.105)" fill="#0079c5" font-size="4" font-family="SourceSansPro-Regular, Source Sans Pro"><tspan x="0" y="0">minim veniam, quis nostrud exercitation ullamco laboris nisi ut aliquip ex ea commodo consequat.</tspan></text>
      </g>
      <g id="Сгруппировать_2239" data-name="Сгруппировать 2239" transform="translate(315.246 306.179)">
        <text id="general_manager" data-name="general manager" transform="translate(0 9)" fill="#083566" font-size="9" font-family="SourceSansPro-Regular, Source Sans Pro"><tspan x="0" y="0">general manager</tspan></text>
      </g>
      <line id="Линия_95" data-name="Линия 95" x2="76.131" transform="translate(321.217 305.029)" fill="none" stroke="#00afc8" stroke-miterlimit="10" stroke-width="1"/>
      <text id="date" transform="translate(167.98 314.179)" fill="#083566" font-size="8" font-family="SourceSansPro-Regular, Source Sans Pro"><tspan x="0" y="0">date</tspan></text>
      <line id="Линия_96" data-name="Линия 96" x2="76.005" transform="translate(139.869 305.029)" fill="none" stroke="#00afc8" stroke-miterlimit="10" stroke-width="1"/>
      <line id="Линия_97" data-name="Линия 97" x2="263.803" transform="translate(137.971 236.866)" fill="none" stroke="#00afc8" stroke-miterlimit="10" stroke-width="1"/>
      <rect id="Прямоугольник_455" data-name="Прямоугольник 455" width="244.96" height="17.705" transform="translate(146.445 148.341)" fill="none"/>
      <text id="of_appreciation" data-name="of appreciation" transform="translate(211.159 154.937)" fill="#0079c5" font-size="11" font-family="SourceSansPro-Regular, Source Sans Pro"><tspan x="0" y="0">of appreciation</tspan></text>
      <path id="Контур_4490" data-name="Контур 4490" d="M265.325,351.925,252.3,344.843l-12.9,7.082V326h25.925Z" transform="translate(16.689 -11.233)" fill="#cca739"/>
      <path id="Контур_4491" data-name="Контур 4491" d="M239.4,329.035c.885,0,2.15-.253,2.782.253,1.012.632,1.012,2.909,2.15,3.288,1.012.506,2.782-.885,3.92-.632,1.138.379,1.77,2.4,2.909,2.656,1.138.127,2.4-1.644,3.541-1.644s2.4,1.9,3.541,1.644c1.138-.126,1.9-2.276,2.909-2.656,1.138-.379,2.909,1.012,3.92.632.126,0,.126-.127.253-.253V326H239.4v3.035Z" transform="translate(16.689 -11.233)" fill="#cca739"/>
      <path id="Контур_4492" data-name="Контур 4492" d="M280.28,316.892c0,1.138-2.023,2.15-2.15,3.288s1.518,2.656,1.138,3.794-2.529,1.517-3.035,2.529.632,3.035,0,3.92c-.632,1.012-2.909.759-3.541,1.644-.759.885-.253,3.035-1.012,3.794-.885.759-2.909-.127-3.92.506s-1.012,2.909-2.15,3.288c-1.012.506-2.782-.885-3.92-.632-1.138.379-1.77,2.4-2.909,2.656-1.138.126-2.4-1.644-3.541-1.644s-2.4,1.9-3.541,1.644c-1.138-.126-1.9-2.276-2.909-2.656-1.138-.379-2.909,1.012-3.92.632-1.012-.506-1.138-2.656-2.15-3.288s-3.035.253-3.92-.506-.379-2.909-1.012-3.794c-.759-.885-3.035-.632-3.541-1.644-.632-1.012.506-2.909,0-3.92s-2.656-1.391-3.035-2.529,1.265-2.656,1.138-3.794-2.15-2.15-2.15-3.288,2.023-2.15,2.15-3.288-1.518-2.656-1.138-3.794,2.529-1.518,3.035-2.529-.632-3.035,0-3.92c.632-1.012,2.909-.759,3.541-1.644.759-.885.253-3.035,1.012-3.794.885-.759,2.909.126,3.92-.506s1.012-2.909,2.15-3.288c1.012-.506,2.782.885,3.92.632,1.138-.379,1.771-2.4,2.909-2.656,1.138-.126,2.4,1.644,3.541,1.644s2.4-1.9,3.541-1.644c1.138.126,1.9,2.276,2.909,2.656,1.138.379,2.909-1.012,3.92-.632,1.012.506,1.138,2.656,2.15,3.288s3.035-.253,3.92.506.379,2.909,1.012,3.794c.759.885,3.035.632,3.541,1.644.632,1.012-.506,2.909,0,3.92s2.656,1.391,3.035,2.529S278,312.466,278.13,313.6,280.28,315.754,280.28,316.892Z" transform="translate(14.254 -20.209)" fill="#cca739"/>
      <ellipse id="Эллипс_153" data-name="Эллипс 153" cx="19.475" cy="19.475" rx="19.475" ry="19.475" transform="translate(250.524 277.714)" fill="none" stroke="#cca739" stroke-miterlimit="10" stroke-width="1"/>
      <ellipse id="Эллипс_154" data-name="Эллипс 154" cx="19.475" cy="19.475" rx="19.475" ry="19.475" transform="translate(250.018 277.207)" fill="none" stroke="#f2cf81" stroke-miterlimit="10" stroke-width="1"/>
      <rect id="Прямоугольник_456" data-name="Прямоугольник 456" width="63.99" height="13.532" transform="translate(237.751 299.845)" fill="none"/>
      <g id="Сгруппировать-2" data-name="Сгруппировать" transform="translate(258.716 297.607)">
        <text id="stamp" transform="translate(1.265 4)" fill="#cca739" font-size="4" font-family="SourceSansPro-Regular, Source Sans Pro"><tspan x="0" y="0">stamp</tspan></text>
        <text id="design" transform="translate(0 9.059)" fill="#cca739" font-size="4" font-family="SourceSansPro-Regular, Source Sans Pro"><tspan x="0" y="0">design</tspan></text>
      </g>
      <path id="Контур_4493" data-name="Контур 4493" d="M251.867,313.746l-4.932,2.656.885-5.564-3.92-3.92,5.438-.759,2.529-5.059,2.529,5.059,5.438.759-3.92,3.92.885,5.564Z" transform="translate(17.879 -17.822)" fill="#cca739"/>
      <rect id="Прямоугольник_457" data-name="Прямоугольник 457" width="63.99" height="13.532" transform="translate(237.246 299.339)" fill="none"/>
      <g id="Сгруппировать-3" data-name="Сгруппировать" transform="translate(258.189 297.109)">
        <text id="stamp-2" data-name="stamp" transform="translate(1.265 4)" fill="#f2cf81" font-size="4" font-family="SourceSansPro-Regular, Source Sans Pro"><tspan x="0" y="0">stamp</tspan></text>
        <text id="design-2" data-name="design" transform="translate(0 9.059)" fill="#f2cf81" font-size="4" font-family="SourceSansPro-Regular, Source Sans Pro"><tspan x="0" y="0">design</tspan></text>
      </g>
      <path id="Контур_4494" data-name="Контур 4494" d="M251.494,313.346,246.562,316l.885-5.564-4.047-3.794,5.564-.885,2.529-5.059,2.4,5.059,5.564.885-3.92,3.794.885,5.564Z" transform="translate(17.746 -17.928)" fill="#f2cf81"/>
      <g id="Сгруппировать_2243" data-name="Сгруппировать 2243" transform="translate(81.189 23.208)">
        <rect id="Прямоугольник_458" data-name="Прямоугольник 458" width="244.96" height="35.41" transform="translate(0 4.74)" fill="none"/>
      </g>
    </g>
    <g id="Сгруппировать_2267" data-name="Сгруппировать 2267" transform="translate(384.604 4120.074)">
      <text id="UCode_Academy" data-name="UCode
Academy" transform="translate(814.159 -266)" fill="#f80" font-size="13" font-family="BookAntiqua, Book Antiqua"><tspan x="0" y="0">UCode</tspan><tspan fill="#fff"><tspan x="0" y="11">Academy</tspan></tspan></text>
      <g id="Сгруппировать_1783" data-name="Сгруппировать 1783" transform="translate(783.396 -277.182)">
        <path id="Контур_4073" data-name="Контур 4073" d="M798.3-273.724l-2.467-1.382L783.4-267.851l2.714,1.629Z" transform="translate(-783.396 275.106)" fill="#c4c4c4"/>
        <path id="Контур_4074" data-name="Контур 4074" d="M798.3-273.724l-2.467-1.382L783.4-267.851l2.714,1.629Z" transform="translate(-777.18 278.779)" fill="#c4c4c4"/>
        <path id="Контур_4075" data-name="Контур 4075" d="M786.11-247.812l-2.7-1.61,0,13.79,8.875,6,.038-14.516-2.686-1.614v11.427l-3.528-2.449Z" transform="translate(-783.403 256.678)" fill="#fff"/>
        <path id="Контур_4076" data-name="Контур 4076" d="M839.724-249.779l-12.485,7.452v14.361l12.732-7.2v-2.369l-10.265,5.724v-9.13l10.018-5.675Z" transform="translate(-814.852 256.934)" fill="#f80"/>
      </g>
    </g>
  </g>
</svg>
