<svg id="checkmark" xmlns="http://www.w3.org/2000/svg" width="42.632" height="39.078" viewBox="0 0 42.632 39.078">
  <path id="Path_4366" data-name="Path 4366" d="M19.539,39.086A19.539,19.539,0,1,1,30.079,3.1,1.333,1.333,0,0,1,28.639,5.34a16.872,16.872,0,1,0,7.775,14.207c0-.556-.027-1.107-.078-1.648a1.332,1.332,0,1,1,2.652-.258q.09.941.09,1.906A19.562,19.562,0,0,1,19.539,39.086Zm0,0" transform="translate(0 -0.008)" fill="#55059b"/>
  <path id="Path_4367" data-name="Path 4367" d="M158.665,43.551a1.322,1.322,0,0,1-.941-.391l-7.993-7.993a1.333,1.333,0,1,1,1.884-1.885l7.052,7.052,18.6-18.6a1.333,1.333,0,1,1,1.885,1.884L159.608,43.162a1.335,1.335,0,0,1-.943.389Zm0,0" transform="translate(-136.905 -19.571)" fill="#55059b"/>
</svg>
