<svg xmlns="http://www.w3.org/2000/svg" width="54.342" height="40.757" viewBox="0 0 54.342 40.757">
  <path id="Icon_awesome-image" data-name="Icon awesome-image" d="M49.248,45.257H5.095A5.1,5.1,0,0,1,0,40.162V9.595A5.1,5.1,0,0,1,5.095,4.5H49.248a5.1,5.1,0,0,1,5.095,5.095V40.162A5.1,5.1,0,0,1,49.248,45.257ZM11.887,10.444a5.944,5.944,0,1,0,5.944,5.944A5.944,5.944,0,0,0,11.887,10.444ZM6.793,38.464H47.55V26.577l-9.289-9.289a1.274,1.274,0,0,0-1.8,0L22.077,31.671l-5.892-5.892a1.274,1.274,0,0,0-1.8,0l-7.59,7.59Z" transform="translate(0 -4.5)" fill="#fff" opacity="0.35"/>
</svg>
