<svg id="node-js-logo" xmlns="http://www.w3.org/2000/svg" xmlns:xlink="http://www.w3.org/1999/xlink" width="104.966" height="64.287" viewBox="0 0 104.966 64.287">
  <defs>
    <linearGradient id="linear-gradient" x1="-0.847" y1="-1.034" x2="-0.838" y2="-1.034" gradientUnits="objectBoundingBox">
      <stop offset="0.3" stop-color="#3e863d"/>
      <stop offset="0.5" stop-color="#55934f"/>
      <stop offset="0.8" stop-color="#5aad45"/>
    </linearGradient>
    <linearGradient id="linear-gradient-2" x1="-0.742" y1="-0.932" x2="-0.737" y2="-0.932" gradientUnits="objectBoundingBox">
      <stop offset="0.57" stop-color="#3e863d"/>
      <stop offset="0.72" stop-color="#619857"/>
      <stop offset="1" stop-color="#76ac64"/>
    </linearGradient>
    <linearGradient id="linear-gradient-3" x1="-2.148" y1="-2.103" x2="-2.138" y2="-2.103" gradientUnits="objectBoundingBox">
      <stop offset="0.16" stop-color="#6bbf47"/>
      <stop offset="0.38" stop-color="#79b461"/>
      <stop offset="0.47" stop-color="#75ac64"/>
      <stop offset="0.7" stop-color="#659e5a"/>
      <stop offset="0.9" stop-color="#3e863d"/>
    </linearGradient>
  </defs>
  <path id="Path_4458" data-name="Path 4458" d="M181.751,187.776a2,2,0,0,1-.994-.266l-3.165-1.874c-.473-.264-.242-.358-.086-.412a6.39,6.39,0,0,0,1.431-.653.24.24,0,0,1,.236.017l2.431,1.443a.321.321,0,0,0,.294,0l9.479-5.472a.3.3,0,0,0,.145-.256V169.365a.3.3,0,0,0-.147-.261l-9.476-5.467a.291.291,0,0,0-.292,0l-9.474,5.467a.3.3,0,0,0-.15.259V180.3a.292.292,0,0,0,.147.254l2.6,1.5c1.409.7,2.271-.126,2.271-.961V170.3a.27.27,0,0,1,.275-.273h1.2a.271.271,0,0,1,.273.273v10.8a2.628,2.628,0,0,1-2.807,2.959,4.064,4.064,0,0,1-2.185-.593l-2.487-1.433a2,2,0,0,1-.994-1.73V169.363a1.992,1.992,0,0,1,.994-1.727l9.489-5.474a2.079,2.079,0,0,1,1.993,0l9.477,5.476a2,2,0,0,1,.994,1.727V180.3a2.006,2.006,0,0,1-.994,1.727l-9.477,5.474a1.992,1.992,0,0,1-1,.266" transform="translate(-129.87 -123.489)" fill="#689f63"/>
  <path id="Path_4459" data-name="Path 4459" d="M214.859,196.449c-4.148,0-5.017-1.9-5.017-3.5a.273.273,0,0,1,.275-.273h1.224a.274.274,0,0,1,.27.232c.185,1.248.736,1.877,3.244,1.877,2,0,2.847-.451,2.847-1.511,0-.61-.242-1.063-3.346-1.367-2.6-.256-4.2-.828-4.2-2.9,0-1.912,1.614-3.051,4.316-3.051,3.035,0,4.539,1.054,4.729,3.317a.276.276,0,0,1-.275.3H217.7a.272.272,0,0,1-.266-.214c-.3-1.312-1.013-1.732-2.961-1.732-2.181,0-2.435.759-2.435,1.329,0,.691.3.892,3.241,1.281,2.914.387,4.3.933,4.3,2.98,0,2.064-1.723,3.248-4.727,3.248m11.546-11.6h.318a.276.276,0,0,0,.311-.289c0-.28-.192-.28-.3-.28h-.327Zm-.387-.9h.7c.242,0,.717,0,.717.541a.471.471,0,0,1-.387.5c.282.019.3.2.339.465a2,2,0,0,0,.107.541h-.434c-.012-.095-.078-.617-.078-.645-.028-.116-.069-.173-.214-.173H226.4v.821H226Zm-.847,1.02a1.532,1.532,0,1,0,1.526-1.528,1.534,1.534,0,0,0-1.526,1.528m3.36.007a1.827,1.827,0,1,1-1.827-1.827,1.832,1.832,0,0,1,1.827,1.827" transform="translate(-160.05 -139.7)" fill="#689f63"/>
  <path id="Path_4460" data-name="Path 4460" d="M22.527,21.486a1.214,1.214,0,0,0-.607-1.055l-10.05-5.783a1.174,1.174,0,0,0-.552-.159h-.1a1.194,1.194,0,0,0-.555.159L.608,20.431A1.223,1.223,0,0,0,0,21.487L.022,37.062a.6.6,0,0,0,.3.524.574.574,0,0,0,.6,0L6.9,34.165a1.225,1.225,0,0,0,.607-1.054V25.835a1.21,1.21,0,0,1,.606-1.051l2.544-1.465a1.207,1.207,0,0,1,.607-.163,1.185,1.185,0,0,1,.6.163l2.542,1.465a1.211,1.211,0,0,1,.607,1.051V33.11a1.229,1.229,0,0,0,.609,1.054L21.6,37.583a.593.593,0,0,0,.607,0,.609.609,0,0,0,.3-.524ZM69.952,29.6a.3.3,0,0,1-.152.262l-3.452,1.99a.3.3,0,0,1-.3,0l-3.452-1.99a.3.3,0,0,1-.152-.262V25.61a.305.305,0,0,1,.149-.263l3.45-1.993a.307.307,0,0,1,.306,0L69.8,25.347a.3.3,0,0,1,.152.263ZM70.884.077a.607.607,0,0,0-.9.531V16.031a.424.424,0,0,1-.637.368l-2.518-1.45a1.212,1.212,0,0,0-1.213,0l-10.054,5.8a1.211,1.211,0,0,0-.607,1.049V33.408a1.215,1.215,0,0,0,.607,1.051l10.054,5.806a1.219,1.219,0,0,0,1.214,0l10.054-5.809a1.217,1.217,0,0,0,.607-1.051V4.476a1.217,1.217,0,0,0-.624-1.061Zm33.479,25.428a1.214,1.214,0,0,0,.6-1.049V21.643a1.215,1.215,0,0,0-.6-1.05l-9.99-5.8a1.213,1.213,0,0,0-1.217,0L83.1,20.595a1.212,1.212,0,0,0-.607,1.051v11.6a1.218,1.218,0,0,0,.612,1.056L93.1,40A1.211,1.211,0,0,0,94.287,40l6.041-3.358a.606.606,0,0,0,0-1.056l-10.113-5.8a.6.6,0,0,1-.306-.524v-3.64a.6.6,0,0,1,.3-.526l3.146-1.815a.6.6,0,0,1,.605,0L97.118,25.1a.6.6,0,0,1,.3.524v2.862a.605.605,0,0,0,.911.524Zm0,0" transform="translate(0 0)" fill="#333" fill-rule="evenodd"/>
  <path id="Path_4461" data-name="Path 4461" d="M387.96,105.1a.23.23,0,0,1,.233,0l1.929,1.113a.233.233,0,0,1,.116.2v2.228a.233.233,0,0,1-.116.2l-1.929,1.113a.23.23,0,0,1-.233,0l-1.928-1.113a.232.232,0,0,1-.119-.2v-2.228a.23.23,0,0,1,.116-.2Zm0,0" transform="translate(-294.343 -80.137)" fill="#689f63" fill-rule="evenodd"/>
  <g id="Group_2222" data-name="Group 2222" transform="translate(17.434 5.834)">
    <path id="Path_4462" data-name="Path 4462" d="M194.39,202.41,166.221,188.6l-14.443,29.464,28.168,13.808Zm0,0" transform="translate(-151.778 -188.603)" fill="url(#linear-gradient)"/>
  </g>
  <g id="Group_2223" data-name="Group 2223" transform="translate(15.605 4.291)">
    <path id="Path_4463" data-name="Path 4463" d="M144.07,201.535l19.89,26.92,26.305-19.435L170.374,182.1Zm0,0" transform="translate(-144.07 -182.101)" fill="url(#linear-gradient-2)"/>
  </g>
  <g id="Group_2224" data-name="Group 2224" transform="translate(28.169 14.692)">
    <path id="Path_4464" data-name="Path 4464" d="M197.02,225.934v25.491h21.755V225.934Zm0,0" transform="translate(-197.02 -225.934)" fill="url(#linear-gradient-3)"/>
  </g>
</svg>
