<svg xmlns="http://www.w3.org/2000/svg" width="64" height="64" viewBox="0 0 64 64">
  <g id="Play" transform="translate(-634 -926)">
    <circle id="Ellipse_141" data-name="Ellipse 141" cx="32" cy="32" r="32" transform="translate(634 926)" fill="#55059b" opacity="0.18"/>
    <g id="Polygon_1" data-name="Polygon 1" transform="translate(679 946) rotate(90)" fill="none">
      <path d="M10.285,2.858a2,2,0,0,1,3.43,0l8.468,14.113A2,2,0,0,1,20.468,20H3.532a2,2,0,0,1-1.715-3.029Z" stroke="none"/>
      <path d="M 12.00000095367432 3.387296676635742 C 11.89427089691162 3.387296676635742 11.6979808807373 3.41883659362793 11.57125091552734 3.630046844482422 L 3.103630065917969 17.74274635314941 C 2.973140716552734 17.96022605895996 3.04364013671875 18.1516170501709 3.097280502319336 18.24635696411133 C 3.150911331176758 18.34108734130859 3.27876091003418 18.5000057220459 3.532381057739258 18.5000057220459 L 20.46762084960938 18.5000057220459 C 20.72124099731445 18.5000057220459 20.84908103942871 18.34108734130859 20.9027214050293 18.24635696411133 C 20.95636177062988 18.15162658691406 21.02685165405273 17.96022605895996 20.89636039733887 17.74274635314941 L 12.42874050140381 3.630046844482422 C 12.30201053619385 3.41883659362793 12.10573101043701 3.387296676635742 12.00000095367432 3.387296676635742 M 12 1.887296676635742 C 12.66329097747803 1.887296676635742 13.32658100128174 2.210966110229492 13.71498107910156 2.858306884765625 L 22.18260192871094 16.97100639343262 C 22.98244094848633 18.30405616760254 22.0222110748291 20.0000057220459 20.46762084960938 20.0000057220459 L 3.532381057739258 20.0000057220459 C 1.977790832519531 20.0000057220459 1.017560958862305 18.30405616760254 1.817390441894531 16.97100639343262 L 10.28501129150391 2.858306884765625 C 10.67341613769531 2.210966110229492 11.33670806884766 1.887296676635742 12 1.887296676635742 Z" stroke="none" fill="#55059b"/>
    </g>
  </g>
</svg>
