<svg id="react" xmlns="http://www.w3.org/2000/svg" width="81" height="72.825" viewBox="0 0 81 72.825">
  <path id="Path_4467" data-name="Path 4467" d="M.754,37.066c0,6.117,5.973,11.828,15.39,15.047-1.881,9.467-.337,17.1,4.819,20.071,5.3,3.056,13.194.941,20.687-5.609,7.3,6.286,14.686,8.759,19.837,5.778,5.294-3.065,6.9-11.213,4.972-20.976,9.809-3.243,15.3-8.112,15.3-14.31,0-5.975-5.984-11.144-15.275-14.343,2.08-10.166.318-17.612-5.051-20.708C56.252-.969,48.784,1.633,41.373,8.083,33.662,1.237,26.268-.853,20.9,2.251c-5.171,2.994-6.647,10.763-4.76,20.405C7.045,25.829.754,31.115.754,37.066Z" transform="translate(-0.754 -0.785)" fill="#fff"/>
  <path id="Path_4468" data-name="Path 4468" d="M74.388,35.259q-1.148-.394-2.316-.73.194-.786.358-1.579c1.753-8.509.607-15.364-3.307-17.621-3.753-2.164-9.89.092-16.088,5.486q-.916.8-1.791,1.644-.586-.561-1.192-1.1c-6.5-5.768-13.007-8.2-16.917-5.935-3.749,2.17-4.859,8.615-3.281,16.679q.236,1.2.532,2.383c-.921.262-1.811.541-2.662.837-7.616,2.655-12.48,6.817-12.48,11.133,0,4.458,5.221,8.93,13.154,11.641q.965.328,1.945.608-.318,1.276-.565,2.568c-1.5,7.924-.33,14.216,3.41,16.373,3.862,2.227,10.344-.062,16.656-5.579q.748-.654,1.5-1.384.947.914,1.945,1.774c6.114,5.261,12.152,7.385,15.888,5.223,3.859-2.234,5.112-8.993,3.484-17.216q-.186-.942-.431-1.923.683-.2,1.338-.418c8.247-2.732,13.612-7.149,13.612-11.667,0-4.332-5.021-8.522-12.79-11.2Z" transform="translate(-10.63 -10.143)" fill="#53c1de"/>
  <path id="Path_4469" data-name="Path 4469" d="M79.179,61.769c-.393.13-.8.256-1.208.378a72.123,72.123,0,0,0-3.643-9.113,72.1,72.1,0,0,0,3.5-8.98c.736.213,1.45.438,2.138.675,6.657,2.291,10.717,5.68,10.717,8.29,0,2.781-4.385,6.391-11.505,8.75Zm-2.954,5.854a26.022,26.022,0,0,1,.346,9.494c-.429,2.309-1.29,3.849-2.355,4.466C71.948,82.9,67.1,81.19,61.871,76.691q-.9-.774-1.809-1.649a72.214,72.214,0,0,0,6.03-7.657,71.733,71.733,0,0,0,9.743-1.5Q76.055,66.772,76.224,67.624ZM46.346,81.357c-2.215.782-3.979.8-5.045.19-2.269-1.308-3.212-6.361-1.926-13.137q.229-1.2.525-2.388a72.259,72.259,0,0,0,9.694,1.4,74.78,74.78,0,0,0,6.175,7.629q-.67.648-1.371,1.262a26.027,26.027,0,0,1-8.053,5.041ZM35.97,61.752A26.033,26.033,0,0,1,27.58,57.3C25.8,55.767,24.9,54.25,24.9,53.019c0-2.619,3.905-5.96,10.419-8.231q1.226-.426,2.476-.779A73.7,73.7,0,0,0,41.3,53.094a74.821,74.821,0,0,0-3.55,9.214q-.895-.256-1.776-.556Zm3.478-23.676c-1.352-6.909-.454-12.121,1.805-13.429,2.407-1.393,7.728.593,13.337,5.574.358.318.719.652,1.079,1A73.641,73.641,0,0,0,49.542,38.8a75.087,75.087,0,0,0-9.6,1.492q-.275-1.1-.494-2.216Zm31.029,7.662q-1.055-1.822-2.187-3.6c2.3.29,4.494.675,6.559,1.146a65.556,65.556,0,0,1-2.3,6.194q-1-1.892-2.069-3.743ZM57.824,33.413a65.72,65.72,0,0,1,4.233,5.11q-4.249-.2-8.5,0C54.953,36.678,56.384,34.966,57.824,33.413ZM45.089,45.759q-1.059,1.836-2.03,3.72c-.895-2.122-1.661-4.209-2.286-6.225,2.052-.459,4.241-.835,6.522-1.12q-1.145,1.786-2.205,3.624ZM47.36,64.123a65.435,65.435,0,0,1-6.629-1.066c.635-2.051,1.418-4.183,2.332-6.351q.976,1.885,2.039,3.722,1.085,1.874,2.258,3.694Zm10.549,8.72c-1.456-1.572-2.909-3.31-4.328-5.18q2.066.081,4.209.081,2.2,0,4.342-.1A65.352,65.352,0,0,1,57.909,72.842ZM72.576,56.6a65.261,65.261,0,0,1,2.416,6.328,65.217,65.217,0,0,1-6.71,1.144q1.141-1.808,2.208-3.66,1.085-1.882,2.086-3.811Zm-4.748,2.276q-1.635,2.839-3.451,5.568c-2.134.152-4.34.231-6.587.231s-4.416-.07-6.513-.206q-1.863-2.721-3.516-5.577-1.644-2.839-3.069-5.8,1.42-2.956,3.06-5.8h0q1.638-2.842,3.488-5.553c2.139-.162,4.333-.246,6.55-.246s4.424.085,6.562.248q1.83,2.705,3.466,5.534t3.1,5.772q-1.441,2.966-3.091,5.823Zm6.339-34.317c2.409,1.389,3.346,6.991,1.832,14.338q-.149.718-.323,1.43a73.616,73.616,0,0,0-9.618-1.52,72.189,72.189,0,0,0-6.081-7.589q.808-.779,1.654-1.517C66.942,25.076,71.906,23.251,74.168,24.555Z" transform="translate(-17.21 -16.708)" fill="#fff"/>
  <path id="Path_4470" data-name="Path 4470" d="M114.468,94.665a6.424,6.424,0,1,1-6.424,6.424,6.424,6.424,0,0,1,6.424-6.424" transform="translate(-73.887 -64.777)" fill="#53c1de"/>
</svg>
