<svg xmlns="http://www.w3.org/2000/svg" width="64" height="64" viewBox="0 0 64 64">
  <g id="Students" transform="translate(-277 -926)">
    <circle id="Ellipse_140" data-name="Ellipse 140" cx="32" cy="32" r="32" transform="translate(277 926)" fill="#55059b" opacity="0.18"/>
    <path id="person" d="M99.222,27.782v3.091a.523.523,0,1,1-1.046,0V27.782a4.351,4.351,0,0,0-4.354-4.354,3.212,3.212,0,0,1-2.764-1.552.523.523,0,1,1,.894-.544,2.173,2.173,0,0,0,1.87,1.05,5.4,5.4,0,0,1,5.4,5.4Zm-9.13-5.245a.523.523,0,0,1-.4.623A5.007,5.007,0,0,1,85.8,22.4a3.173,3.173,0,0,1-2.367,1.03,4.351,4.351,0,0,0-4.354,4.354v3.091a.523.523,0,1,1-1.046,0V27.782a5.4,5.4,0,0,1,5.4-5.4A2.181,2.181,0,0,0,85.619,20.2v-.138A7.009,7.009,0,0,1,81.635,14a2.135,2.135,0,0,1-1.64-2.068V9.225a9.584,9.584,0,0,1,2.593-6.99c2.994-2.886,7.794-2.7,11.324-1a.524.524,0,0,1,.111.871,7.061,7.061,0,0,1,4.321,3.109.578.578,0,0,1,.12.411.529.529,0,0,1-.15.332,3.416,3.416,0,0,0-.989,2.413v3.569a.523.523,0,0,1-1.046,0V8.368A4.453,4.453,0,0,1,97.3,5.524a6.044,6.044,0,0,0-4.338-2.547l-.92-.1a.524.524,0,0,1-.143-1l.418-.172c-5.447-1.9-11.271.211-11.271,7.516v2.718a1.08,1.08,0,0,0,.589.957V9.5A3.667,3.667,0,0,1,85.292,5.84h6.671A3.666,3.666,0,0,1,95.625,9.5v4.284a7.007,7.007,0,0,1-8.971,6.674,3.2,3.2,0,0,1-.274,1.068,3.962,3.962,0,0,0,3.089.609.523.523,0,0,1,.623.4ZM88.628,19.7a5.958,5.958,0,0,0,5.951-5.951V9.5a2.619,2.619,0,0,0-2.616-2.616H85.292A2.619,2.619,0,0,0,82.676,9.5v4.244A5.958,5.958,0,0,0,88.628,19.7Zm5.3,9.017h-1.57a.523.523,0,0,0,0,1.046h1.57a.523.523,0,1,0,0-1.046Z" transform="translate(219.967 941.459)" fill="#55059b"/>
  </g>
</svg>
