<svg xmlns="http://www.w3.org/2000/svg" width="27.671" height="22.482" viewBox="0 0 27.671 22.482">
  <path id="twitter_1_" data-name="twitter (1)" d="M27.671,50.662a11.828,11.828,0,0,1-3.269.9,5.641,5.641,0,0,0,2.5-3.135A11.337,11.337,0,0,1,23.3,49.8a5.672,5.672,0,0,0-9.813,3.879,5.841,5.841,0,0,0,.131,1.294A16.057,16.057,0,0,1,1.927,49.034,5.674,5.674,0,0,0,3.67,56.616a5.6,5.6,0,0,1-2.563-.7v.062a5.7,5.7,0,0,0,4.545,5.574,5.661,5.661,0,0,1-1.487.187,5.016,5.016,0,0,1-1.074-.1,5.727,5.727,0,0,0,5.3,3.952,11.4,11.4,0,0,1-7.034,2.419A10.629,10.629,0,0,1,0,67.937a15.971,15.971,0,0,0,8.7,2.546c10.439,0,16.146-8.647,16.146-16.143,0-.251-.009-.493-.021-.733A11.317,11.317,0,0,0,27.671,50.662Z" transform="translate(0 -48)" fill="#fff"/>
</svg>
